# This file uses centimeters as units for non-parametric coordinates.

mtllib PaperCurved.mtl
g default
v -4.607055 1.690545 3.855780
v 4.768181 1.595798 3.855773
v 0.211500 2.725687 1.651552
v 4.768181 1.595798 -3.500000
v -0.520136 1.595811 -2.974227
v -4.426528 2.512520 3.386892
v -0.113859 2.879601 -1.543117
v -2.943512 3.174482 2.727305
v 0.041717 3.293376 -0.131264
v -1.770526 3.290972 2.373421
v 0.180196 3.150178 0.817045
v -0.745302 3.126209 2.053447
v -0.066156 2.474888 -2.099957
v -3.754478 2.893397 3.034410
v -0.071982 3.160447 -0.916286
v -2.418471 3.266963 2.562908
v 0.135753 3.241221 0.472025
v -1.259613 3.240556 2.221228
v 0.214765 2.967426 1.252146
v -0.274084 2.961673 1.875306
v -1.153251 1.595798 3.855773
vt 0.000000 0.000000
vt 1.000000 0.000000
vt 0.000000 0.636364
vt 1.000000 0.636364
vt 0.459461 0.636364
vt 0.000000 0.141497
vt 0.333671 0.636364
vt 0.000000 0.309251
vt 0.187280 0.636364
vt 0.000000 0.426679
vt 0.092042 0.636364
vt 0.000000 0.530284
vt 0.401323 0.636364
vt 0.000000 0.222388
vt 0.266205 0.636364
vt 0.000000 0.362358
vt 0.127232 0.636364
vt 0.000000 0.477649
vt 0.045711 0.636364
vt 0.000000 0.580728
vt 0.461688 0.000000
vn 0.073562 0.995845 0.053681
vn 0.066327 0.997143 0.036147
vn 0.000001 1.000000 0.000001
vn 0.000001 1.000000 0.000001
vn 0.384440 0.891560 0.239431
vn 0.557874 -0.698789 0.447739
vn 0.559172 -0.697037 0.448849
vn 0.501500 -0.766679 0.400876
vn 0.501066 -0.767145 0.400527
vn 0.305419 -0.920245 0.244682
vn 0.308974 -0.918317 0.247446
vn 0.093219 -0.992519 0.078841
vn 0.086900 -0.993481 0.073788
vn -0.135162 -0.985260 -0.104850
vn -0.127129 -0.987018 -0.098155
vn -0.296316 -0.924984 -0.237912
vn -0.301860 -0.922078 -0.242182
vn -0.430805 -0.835159 -0.341931
vn -0.426499 -0.838775 -0.338460
vn -0.547928 -0.713661 -0.436421
vn 0.249108 0.958913 0.135760
s 1
g CurvedPaper
usemtl initialShadingGroup
f 5/5/1 21/21/2 2/2/3 4/4/4
f 6/6/5 5/5/1 13/13/6 14/14/7
f 8/8/8 7/7/9 15/15/10 16/16/11
f 10/10/12 9/9/13 17/17/14 18/18/15
f 12/12/16 11/11/17 19/19/18 20/20/19
f 14/14/7 13/13/6 7/7/9 8/8/8
f 16/16/11 15/15/10 9/9/13 10/10/12
f 18/18/15 17/17/14 11/11/17 12/12/16
f 20/20/19 19/19/18 3/3/20
f 1/1/21 21/21/2 5/5/1 6/6/5
